<svg width="1029" height="648" viewBox="0 0 1029 648" fill="none" xmlns="http://www.w3.org/2000/svg">
<g clip-path="url(#clip0_904_2452)">
<path d="M750.828 157.809C750.828 219.979 653.493 403.323 597.685 503.336C593.9 510.122 588.367 515.775 581.66 519.71C574.953 523.646 567.314 525.721 559.534 525.721C551.754 525.721 544.116 523.646 537.408 519.71C530.701 515.775 525.169 510.122 521.383 503.336C465.575 403.323 368.24 219.979 368.24 157.809C368.24 70.6537 453.885 0 559.534 0C665.183 0 750.828 70.6537 750.828 157.809Z" fill="#DEDA6D"/>
<path d="M560.432 260.027C617.968 260.027 664.611 213.46 664.611 156.016C664.611 98.5726 617.968 52.0054 560.432 52.0054C502.895 52.0054 456.253 98.5726 456.253 156.016C456.253 213.46 502.895 260.027 560.432 260.027Z" fill="white"/>
<path d="M125.701 250.127C160.163 250.127 188.1 222.235 188.1 187.828C188.1 153.422 160.163 125.53 125.701 125.53C91.2387 125.53 63.3018 153.422 63.3018 187.828C63.3018 222.235 91.2387 250.127 125.701 250.127Z" fill="#FF6584"/>
<path d="M559.533 648C642.953 648 710.579 642.788 710.579 636.359C710.579 629.93 642.953 624.718 559.533 624.718C476.114 624.718 408.488 629.93 408.488 636.359C408.488 642.788 476.114 648 559.533 648Z" fill="#DEDA6D"/>
<path opacity="0.4" d="M112.995 243.229C116.171 223.691 102.881 205.281 83.3106 202.11C63.7404 198.94 45.3011 212.209 42.1253 231.747C38.9495 251.286 52.2397 269.695 71.8099 272.866C91.3801 276.037 109.819 262.768 112.995 243.229Z" fill="#DEDA6D"/>
<path d="M917.438 422.373C634.737 316.569 289.94 419.719 90.869 630.717C89.7374 631.901 88.6058 633.102 87.5102 634.304H84.4746C85.5164 633.102 86.5941 631.901 87.6538 630.717C290.857 403.669 631.072 313.18 917.438 422.373Z" fill="#3F3D56"/>
<path d="M994.693 457.468C969.704 444.163 943.902 432.442 917.438 422.373C943.971 432.276 969.784 444.002 994.693 457.468Z" fill="#3F3D56"/>
<path opacity="0.4" d="M839.97 351.906C861.715 351.906 879.343 334.307 879.343 312.597C879.343 290.887 861.715 273.288 839.97 273.288C818.225 273.288 800.598 290.887 800.598 312.597C800.598 334.307 818.225 351.906 839.97 351.906Z" fill="#DEDA6D"/>
<path d="M844.354 614.957C847.397 626.186 857.819 633.141 857.819 633.141C857.819 633.141 863.307 621.889 860.265 610.66C857.222 599.43 846.8 592.476 846.8 592.476C846.8 592.476 841.312 603.727 844.354 614.957Z" fill="#3F3D56"/>
<path d="M848.825 612.543C857.174 620.657 858.194 633.131 858.194 633.131C858.194 633.131 845.677 632.449 837.328 624.334C828.979 616.22 827.959 603.746 827.959 603.746C827.959 603.746 840.476 604.429 848.825 612.543Z" fill="#DEDA6D"/>
<path d="M6.03504 458.823V476.146L5.17285 477.078V458.643C5.46024 458.697 5.74771 458.769 6.03504 458.823Z" fill="#3F3D56"/>
<path d="M61.3217 630.709C61.0702 631.122 60.8008 631.534 60.5314 631.947H5.17285V459.683L6.03504 458.823L13.3814 467.161V454.967H36.7319V493.666L60.3158 520.404L60.5314 520.655C60.8187 521.552 61.0882 522.448 61.3576 523.345C61.3595 523.359 61.3658 523.371 61.3756 523.381C64.9125 534.682 67.8149 546.171 70.0691 557.794C75.2062 585.214 74.4338 610.355 61.3217 630.709Z" fill="#CCCCCC"/>
<path d="M24.6105 554.042H9.74805V566.407H24.6105V554.042Z" fill="#3F3D56"/>
<path d="M24.6105 576.3H9.74805V588.665H24.6105V576.3Z" fill="#3F3D56"/>
<path d="M482.434 530.547L475.003 518.183L544.361 458.828C595.637 434.187 657.446 441.297 722.712 458.828V476.139L658.307 545.387L583.994 560.225L482.434 530.547Z" fill="#3F3D56"/>
<path d="M753.412 493.659C765.728 479.981 767.44 466.975 753.412 454.966H730.061V467.167L722.711 458.828L663.261 518.183L653.352 528.074L640.967 577.537L663.261 631.943H777.206V520.655L753.412 493.659Z" fill="#CCCCCC"/>
<path d="M475.003 518.182H663.261V631.944H475.003C452.227 607.342 464.059 562.503 475.003 518.182Z" fill="#F2F2F2"/>
<path d="M637.252 554.042H597.619V588.665H637.252V554.042Z" fill="#3F3D56"/>
<path d="M581.518 552.805H546.839V631.944H581.518V552.805Z" fill="#CCCCCC"/>
<path d="M507.205 565.171V552.806H492.344V565.171H505.966H507.205Z" fill="#3F3D56"/>
<path d="M505.966 575.063H492.344V587.429H507.205V575.063H505.966Z" fill="#3F3D56"/>
<path d="M531.976 552.805H517.113V565.171H531.976V552.805Z" fill="#3F3D56"/>
<path d="M531.976 575.063H517.113V587.428H531.976V575.063Z" fill="#3F3D56"/>
<path d="M716.519 566.409V554.042H701.655V566.409H715.279H716.519Z" fill="#3F3D56"/>
<path d="M715.279 576.3H701.655V588.665H716.519V576.3H715.279Z" fill="#3F3D56"/>
<path d="M741.289 554.042H726.427V566.407H741.289V554.042Z" fill="#3F3D56"/>
<path d="M741.289 576.3H726.427V588.665H741.289V576.3Z" fill="#3F3D56"/>
<path d="M147.227 322.81L134.842 312.916L204.2 251.089H380.072V305.497L266.127 382.164L147.227 322.81Z" fill="#3F3D56"/>
<path d="M412.137 285.771V252.324H388.787V260.516L380.072 251.088L323.098 312.916L300.806 327.755L266.238 579.897L318.369 631.943H439.522C458.085 538.714 472.805 442.941 439.522 315.389L412.137 285.771Z" fill="#CCCCCC"/>
<path d="M134.841 312.917H323.099V631.944H134.841C114.24 508.004 104.179 393.068 134.841 312.917Z" fill="#F2F2F2"/>
<path d="M242.593 554.042H207.914V631.944H242.593V554.042Z" fill="#CCCCCC"/>
<path d="M170.758 576.3V563.936H155.896V576.3H169.521H170.758Z" fill="#3F3D56"/>
<path d="M169.521 586.192H155.896V598.558H170.758V586.192H169.521Z" fill="#3F3D56"/>
<path d="M195.529 563.934H180.667V576.3H195.529V563.934Z" fill="#3F3D56"/>
<path d="M271.08 586.192H257.456V598.558H272.318V586.192H271.08Z" fill="#3F3D56"/>
<path d="M297.089 563.934H282.227V576.3H297.089V563.934Z" fill="#3F3D56"/>
<path d="M297.089 586.192H282.227V598.557H297.089V586.192Z" fill="#3F3D56"/>
<path d="M376.355 328.991V316.626H361.493V328.991H375.117H376.355Z" fill="#3F3D56"/>
<path d="M375.117 338.885H361.493V351.249H376.355V338.885H375.117Z" fill="#3F3D56"/>
<path d="M401.126 316.626H386.264V328.991H401.126V316.626Z" fill="#3F3D56"/>
<path d="M401.126 338.884H386.264V351.249H401.126V338.884Z" fill="#3F3D56"/>
<path d="M376.355 398.239V385.873H361.493V398.239H375.117H376.355Z" fill="#3F3D56"/>
<path d="M375.117 408.131H361.493V420.496H376.355V408.131H375.117Z" fill="#3F3D56"/>
<path d="M401.126 385.872H386.264V398.238H401.126V385.872Z" fill="#3F3D56"/>
<path d="M401.126 408.13H386.264V420.495H401.126V408.13Z" fill="#3F3D56"/>
<path d="M376.355 467.485V455.119H361.493V467.485H375.117H376.355Z" fill="#3F3D56"/>
<path d="M375.117 477.377H361.493V489.742H376.355V477.377H375.117Z" fill="#3F3D56"/>
<path d="M401.126 455.119H386.264V467.484H401.126V455.119Z" fill="#3F3D56"/>
<path d="M401.126 477.376H386.264V489.742H401.126V477.376Z" fill="#3F3D56"/>
<path d="M376.355 536.731V524.365H361.493V536.731H375.117H376.355Z" fill="#3F3D56"/>
<path d="M375.117 546.623H361.493V558.988H376.355V546.623H375.117Z" fill="#3F3D56"/>
<path d="M401.126 524.365H386.264V536.73H401.126V524.365Z" fill="#3F3D56"/>
<path d="M401.126 546.623H386.264V558.988H401.126V546.623Z" fill="#3F3D56"/>
<path d="M155.896 328.991H299.566V358.668C253.515 345.98 205.493 346.89 155.896 358.668V328.991Z" fill="#3F3D56"/>
<path d="M155.896 388.345C200.737 401.535 248.627 401.535 299.566 388.345V418.022H155.896V388.345Z" fill="#3F3D56"/>
<path d="M155.896 447.699H299.566V477.376C250.604 461.767 202.663 461.031 155.896 477.376V447.699Z" fill="#3F3D56"/>
<path d="M155.896 507.053C202.751 525.082 250.684 524.332 299.566 507.053V536.73H155.896V507.053Z" fill="#3F3D56"/>
<path d="M928.054 455.495H1029V504.057L1019.98 506.874L989.986 516.221L942.926 505.337L895.92 494.461L871.097 488.72L858.703 484.142C869.013 470.018 887.765 458.91 928.054 455.495Z" fill="#3F3D56"/>
<path d="M1029 484.142V631.947H858.703C858.649 631.855 858.613 631.772 858.559 631.681V631.672C858.519 631.569 858.471 631.469 858.415 631.373C855.757 626.031 853.374 620.703 851.267 615.388C833.395 570.415 835.334 526.631 858.703 484.142H1029Z" fill="#F2F2F2"/>
<path d="M966.456 554.042H931.777V631.944H966.456V554.042Z" fill="#CCCCCC"/>
<path d="M894.621 576.3V563.936H879.76V576.3H893.384H894.621Z" fill="#3F3D56"/>
<path d="M893.384 586.192H879.76V598.558H894.621V586.192H893.384Z" fill="#3F3D56"/>
<path d="M919.393 563.934H904.53V576.3H919.393V563.934Z" fill="#3F3D56"/>
<path d="M919.393 586.192H904.53V598.557H919.393V586.192Z" fill="#3F3D56"/>
<path d="M996.182 576.3V563.936H981.32V576.3H994.944H996.182Z" fill="#3F3D56"/>
<path d="M994.944 586.192H981.32V598.558H996.182V586.192H994.944Z" fill="#3F3D56"/>
<path d="M1020.95 563.934H1006.09V576.3H1020.95V563.934Z" fill="#3F3D56"/>
<path d="M1020.95 586.192H1006.09V598.557H1020.95V586.192Z" fill="#3F3D56"/>
<path d="M895.925 398.11H917.274C938.331 398.11 958.525 406.461 973.414 421.327C988.304 436.192 996.668 456.354 996.668 477.376H895.925V398.11Z" fill="#3F3D56"/>
<path d="M249.298 182.916H270.647C291.704 182.916 311.898 191.267 326.787 206.132C341.677 220.997 350.041 241.159 350.041 262.182H249.298V182.916Z" fill="#3F3D56"/>
<path d="M590.573 381.97H611.922C632.979 381.97 653.173 390.322 668.063 405.187C682.952 420.052 691.317 440.214 691.317 461.237H590.573V381.97Z" fill="#3F3D56"/>
<path d="M996.668 507.053H895.925V536.73H996.668V507.053Z" fill="#3F3D56"/>
<path d="M1029 630.717H5.17383V634.304H1029V630.717Z" fill="#3F3D56"/>
<path d="M99.6002 489.039H96.0078V630.709H99.6002V489.039Z" fill="#3F3D56"/>
<path d="M132.753 507.094C132.982 556.632 98.0728 596.952 98.0728 596.952C98.0728 596.952 53.3669 556.097 62.5641 507.417C71.8137 458.458 100.641 417.766 97.2446 417.558C97.2446 417.558 132.525 457.555 132.753 507.094Z" fill="#DEDA6D"/>
<path d="M458.837 489.039H455.245V630.709H458.837V489.039Z" fill="#3F3D56"/>
<path d="M491.991 507.094C495.229 556.527 457.311 596.952 457.311 596.952C457.311 596.952 422.031 556.955 421.802 507.417C421.573 457.878 456.482 417.558 456.482 417.558C453.079 431.137 489.371 467.096 491.991 507.094Z" fill="#DEDA6D"/>
<path d="M225.445 258.752L381.487 251.13L446.946 305.68L435.373 316.112L331.717 313.782L225.445 258.752Z" fill="#3F3D56"/>
<path d="M69.746 511.904L61.3398 519.489L60.316 520.404L58.1785 522.341L5.17303 521.157V458.643C3.44869 458.267 1.72434 457.908 0 457.567L4.29291 457.352L5.17303 458.087L13.3816 464.92L36.732 484.395L62.8127 506.13L69.746 511.904Z" fill="#3F3D56"/>
<path d="M566.721 464.98L722.763 457.358L788.221 511.908L776.648 522.34L672.992 520.011L566.721 464.98Z" fill="#3F3D56"/>
</g>
<defs>
<clipPath id="clip0_904_2452">
<rect width="1029" height="648" fill="white"/>
</clipPath>
</defs>
</svg>
